<?xml version="1.0" encoding="UTF-8" standalone="no"?>
<!-- Created with Inkscape (http://www.inkscape.org/) -->

<svg
   xmlns:dc="http://purl.org/dc/elements/1.1/"
   xmlns:cc="http://creativecommons.org/ns#"
   xmlns:rdf="http://www.w3.org/1999/02/22-rdf-syntax-ns#"
   xmlns:svg="http://www.w3.org/2000/svg"
   xmlns="http://www.w3.org/2000/svg"
   xmlns:sodipodi="http://sodipodi.sourceforge.net/DTD/sodipodi-0.dtd"
   xmlns:inkscape="http://www.inkscape.org/namespaces/inkscape"
   width="820"
   height="400"
   id="svg2976"
   version="1.1"
   inkscape:version="0.47 r22583"
   sodipodi:docname="config.svg">
  <defs
     id="defs2978">
    <marker
       inkscape:stockid="Arrow2Mend"
       orient="auto"
       refY="0"
       refX="0"
       id="Arrow2Mend"
       style="overflow:visible">
      <path
         id="path4559"
         style="font-size:12px;fill-rule:evenodd;stroke-width:0.625;stroke-linejoin:round"
         d="M 8.7185878,4.0337352 -2.2072895,0.01601326 8.7185884,-4.0017078 c -1.7454984,2.3720609 -1.7354408,5.6174519 -6e-7,8.035443 z"
         transform="scale(-0.6,-0.6)" />
    </marker>
    <marker
       inkscape:stockid="Arrow2Lend"
       orient="auto"
       refY="0"
       refX="0"
       id="Arrow2Lend"
       style="overflow:visible">
      <path
         id="path4553"
         style="font-size:12px;fill-rule:evenodd;stroke-width:0.625;stroke-linejoin:round"
         d="M 8.7185878,4.0337352 -2.2072895,0.01601326 8.7185884,-4.0017078 c -1.7454984,2.3720609 -1.7354408,5.6174519 -6e-7,8.035443 z"
         transform="matrix(-1.1,0,0,-1.1,-1.1,0)" />
    </marker>
    <marker
       inkscape:stockid="Arrow1Lend"
       orient="auto"
       refY="0"
       refX="0"
       id="Arrow1Lend"
       style="overflow:visible">
      <path
         id="path4535"
         d="M 0,0 5,-5 -12.5,0 5,5 0,0 z"
         style="fill-rule:evenodd;stroke:#000000;stroke-width:1pt;marker-start:none"
         transform="matrix(-0.8,0,0,-0.8,-10,0)" />
    </marker>
    <inkscape:perspective
       sodipodi:type="inkscape:persp3d"
       inkscape:vp_x="0 : 526.18109 : 1"
       inkscape:vp_y="0 : 1000 : 0"
       inkscape:vp_z="744.09448 : 526.18109 : 1"
       inkscape:persp3d-origin="372.04724 : 350.78739 : 1"
       id="perspective2984" />
    <inkscape:perspective
       id="perspective2994"
       inkscape:persp3d-origin="0.5 : 0.33333333 : 1"
       inkscape:vp_z="1 : 0.5 : 1"
       inkscape:vp_y="0 : 1000 : 0"
       inkscape:vp_x="0 : 0.5 : 1"
       sodipodi:type="inkscape:persp3d" />
    <marker
       inkscape:stockid="DotM"
       orient="auto"
       refY="0"
       refX="0"
       id="DotM"
       style="overflow:visible">
      <path
         id="path4867"
         d="m -2.5,-1 c 0,2.76 -2.24,5 -5,5 -2.76,0 -5,-2.24 -5,-5 0,-2.76 2.24,-5 5,-5 2.76,0 5,2.24 5,5 z"
         style="fill-rule:evenodd;stroke:#000000;stroke-width:1pt;marker-start:none;marker-end:none"
         transform="matrix(0.4,0,0,0.4,2.96,0.4)" />
    </marker>
    <marker
       inkscape:stockid="DotM"
       orient="auto"
       refY="0"
       refX="0"
       id="marker3000"
       style="overflow:visible">
      <path
         id="path3002"
         d="m -2.5,-1 c 0,2.76 -2.24,5 -5,5 -2.76,0 -5,-2.24 -5,-5 0,-2.76 2.24,-5 5,-5 2.76,0 5,2.24 5,5 z"
         style="fill-rule:evenodd;stroke:#000000;stroke-width:1pt;marker-start:none;marker-end:none"
         transform="matrix(0.4,0,0,0.4,2.96,0.4)" />
    </marker>
    <marker
       inkscape:stockid="DotM"
       orient="auto"
       refY="0"
       refX="0"
       id="marker3004"
       style="overflow:visible">
      <path
         id="path3006"
         d="m -2.5,-1 c 0,2.76 -2.24,5 -5,5 -2.76,0 -5,-2.24 -5,-5 0,-2.76 2.24,-5 5,-5 2.76,0 5,2.24 5,5 z"
         style="fill-rule:evenodd;stroke:#000000;stroke-width:1pt;marker-start:none;marker-end:none"
         transform="matrix(0.4,0,0,0.4,2.96,0.4)" />
    </marker>
    <marker
       inkscape:stockid="DotM"
       orient="auto"
       refY="0"
       refX="0"
       id="marker3008"
       style="overflow:visible">
      <path
         id="path3010"
         d="m -2.5,-1 c 0,2.76 -2.24,5 -5,5 -2.76,0 -5,-2.24 -5,-5 0,-2.76 2.24,-5 5,-5 2.76,0 5,2.24 5,5 z"
         style="fill-rule:evenodd;stroke:#000000;stroke-width:1pt;marker-start:none;marker-end:none"
         transform="matrix(0.4,0,0,0.4,2.96,0.4)" />
    </marker>
    <marker
       inkscape:stockid="DotM"
       orient="auto"
       refY="0"
       refX="0"
       id="marker3012"
       style="overflow:visible">
      <path
         id="path3014"
         d="m -2.5,-1 c 0,2.76 -2.24,5 -5,5 -2.76,0 -5,-2.24 -5,-5 0,-2.76 2.24,-5 5,-5 2.76,0 5,2.24 5,5 z"
         style="fill-rule:evenodd;stroke:#000000;stroke-width:1pt;marker-start:none;marker-end:none"
         transform="matrix(0.4,0,0,0.4,2.96,0.4)" />
    </marker>
    <marker
       inkscape:stockid="DotM"
       orient="auto"
       refY="0"
       refX="0"
       id="marker3016"
       style="overflow:visible">
      <path
         id="path3018"
         d="m -2.5,-1 c 0,2.76 -2.24,5 -5,5 -2.76,0 -5,-2.24 -5,-5 0,-2.76 2.24,-5 5,-5 2.76,0 5,2.24 5,5 z"
         style="fill-rule:evenodd;stroke:#000000;stroke-width:1pt;marker-start:none;marker-end:none"
         transform="matrix(0.4,0,0,0.4,2.96,0.4)" />
    </marker>
    <marker
       inkscape:stockid="DotM"
       orient="auto"
       refY="0"
       refX="0"
       id="marker3020"
       style="overflow:visible">
      <path
         id="path3022"
         d="m -2.5,-1 c 0,2.76 -2.24,5 -5,5 -2.76,0 -5,-2.24 -5,-5 0,-2.76 2.24,-5 5,-5 2.76,0 5,2.24 5,5 z"
         style="fill-rule:evenodd;stroke:#000000;stroke-width:1pt;marker-start:none;marker-end:none"
         transform="matrix(0.4,0,0,0.4,2.96,0.4)" />
    </marker>
  </defs>
  <sodipodi:namedview
     id="base"
     pagecolor="#ffffff"
     bordercolor="#666666"
     borderopacity="1.0"
     inkscape:pageopacity="0.0"
     inkscape:pageshadow="2"
     inkscape:zoom="0.7"
     inkscape:cx="602.33652"
     inkscape:cy="170.19875"
     inkscape:document-units="px"
     inkscape:current-layer="layer1"
     showgrid="false"
     inkscape:window-width="1449"
     inkscape:window-height="931"
     inkscape:window-x="1249"
     inkscape:window-y="69"
     inkscape:window-maximized="0" />
  <metadata
     id="metadata2981">
    <rdf:RDF>
      <cc:Work
         rdf:about="">
        <dc:format>image/svg+xml</dc:format>
        <dc:type
           rdf:resource="http://purl.org/dc/dcmitype/StillImage" />
        <dc:title />
      </cc:Work>
    </rdf:RDF>
  </metadata>
  <g
     inkscape:label="Layer 1"
     inkscape:groupmode="layer"
     id="layer1"
     transform="translate(-150.82085,48.879356)">
    <rect
       style="fill:#1c4e63;fill-opacity:1;fill-rule:nonzero;stroke:#1c4e63;stroke-width:4"
       id="rect4969"
       width="806.23895"
       height="108.19663"
       x="158.82085"
       y="209.39384" />
    <rect
       style="fill:#eeeeec;fill-opacity:1;fill-rule:nonzero;stroke:#1c4e63;stroke-width:3.99999976"
       id="rect5753"
       width="159.14886"
       height="135.16582"
       x="184.92488"
       y="197.9548" />
    <text
       id="text5755"
       y="253.77292"
       x="220.97574"
       style="font-size:30.58895874px;font-style:normal;font-weight:normal;fill:#888a85;fill-opacity:1;stroke:none;font-family:Bitstream Vera Sans"
       xml:space="preserve"
       transform="scale(0.99989761,1.0001024)"><tspan
         style="fill:#888a85;fill-opacity:1"
         y="253.77292"
         x="220.97574"
         id="tspan5757"
         sodipodi:role="line">home</tspan></text>
    <text
       xml:space="preserve"
       style="font-size:30.58895874px;font-style:normal;font-weight:normal;fill:#2e3436;fill-opacity:1;stroke:none;font-family:Bitstream Vera Sans"
       x="215.46005"
       y="286.88449"
       id="text5761"
       transform="scale(0.99989761,1.0001024)"><tspan
         sodipodi:role="line"
         id="tspan5763"
         x="215.46005"
         y="286.88449"
         style="fill:#2e3436;fill-opacity:1">trac.ini</tspan></text>
    <rect
       y="197.95482"
       x="412.5434"
       height="135.16582"
       width="159.14886"
       id="rect5777"
       style="fill:#eeeeec;fill-opacity:1;fill-rule:nonzero;stroke:#1c4e63;stroke-width:3.99999976" />
    <text
       xml:space="preserve"
       style="font-size:30.58895874px;font-style:normal;font-weight:normal;fill:#888a85;fill-opacity:1;stroke:none;font-family:Bitstream Vera Sans"
       x="428.61563"
       y="253.77306"
       id="text5779"
       transform="scale(0.99989762,1.0001024)"><tspan
         sodipodi:role="line"
         id="tspan5781"
         x="428.61563"
         y="253.77306"
         style="fill:#888a85;fill-opacity:1">project 1</tspan></text>
    <text
       id="text5783"
       y="286.88464"
       x="438.6167"
       style="font-size:30.58895874px;font-style:normal;font-weight:normal;fill:#2e3436;fill-opacity:1;stroke:none;font-family:Bitstream Vera Sans"
       xml:space="preserve"
       transform="scale(0.99989762,1.0001024)"><tspan
         style="fill:#2e3436;fill-opacity:1"
         y="286.88464"
         x="438.6167"
         id="tspan5785"
         sodipodi:role="line">trac.ini</tspan></text>
    <rect
       style="fill:#eeeeec;fill-opacity:1;fill-rule:nonzero;stroke:#1c4e63;stroke-width:3.99999976"
       id="rect5819"
       width="159.14886"
       height="135.16582"
       x="590.49982"
       y="197.9548" />
    <text
       id="text5821"
       y="253.77292"
       x="606.59015"
       style="font-size:30.58895874px;font-style:normal;font-weight:normal;fill:#888a85;fill-opacity:1;stroke:none;font-family:Bitstream Vera Sans"
       xml:space="preserve"
       transform="scale(0.99989761,1.0001024)"><tspan
         style="fill:#888a85;fill-opacity:1"
         y="253.77292"
         x="606.59015"
         id="tspan5823"
         sodipodi:role="line">project 2</tspan></text>
    <text
       xml:space="preserve"
       style="font-size:30.58895874px;font-style:normal;font-weight:normal;fill:#2e3436;fill-opacity:1;stroke:none;font-family:Bitstream Vera Sans"
       x="618.59125"
       y="286.88449"
       id="text5825"
       transform="scale(0.99989761,1.0001024)"><tspan
         sodipodi:role="line"
         id="tspan5827"
         x="618.59125"
         y="286.88449"
         style="fill:#2e3436;fill-opacity:1">trac.ini</tspan></text>
    <rect
       y="197.9548"
       x="772.59467"
       height="135.16582"
       width="159.14886"
       id="rect5833"
       style="fill:#eeeeec;fill-opacity:1;fill-rule:nonzero;stroke:#1c4e63;stroke-width:3.99999976" />
    <text
       xml:space="preserve"
       style="font-size:30.58895874px;font-style:normal;font-weight:normal;fill:#888a85;fill-opacity:1;stroke:none;font-family:Bitstream Vera Sans"
       x="788.70367"
       y="253.77292"
       id="text5835"
       transform="scale(0.99989761,1.0001024)"><tspan
         sodipodi:role="line"
         id="tspan5837"
         x="788.70367"
         y="253.77292"
         style="fill:#888a85;fill-opacity:1">project n</tspan></text>
    <text
       id="text5839"
       y="286.88449"
       x="800.70477"
       style="font-size:30.58895874px;font-style:normal;font-weight:normal;fill:#2e3436;fill-opacity:1;stroke:none;font-family:Bitstream Vera Sans"
       xml:space="preserve"
       transform="scale(0.99989761,1.0001024)"><tspan
         style="fill:#2e3436;fill-opacity:1"
         y="286.88449"
         x="800.70477"
         id="tspan5841"
         sodipodi:role="line">trac.ini</tspan></text>
    <rect
       style="fill:#888a85;fill-opacity:1;fill-rule:nonzero;stroke:none"
       id="rect5955"
       width="25.605782"
       height="25.611025"
       x="235.2253"
       y="299.87622" />
    <rect
       style="fill:#888a85;fill-opacity:1;fill-rule:nonzero;stroke:none"
       id="rect5959"
       width="25.605782"
       height="25.611025"
       x="266.26416"
       y="299.87622" />
    <rect
       style="fill:#d3d7cf;fill-opacity:1;fill-rule:nonzero;stroke:none"
       id="rect5967"
       width="25.605782"
       height="25.611025"
       x="624.24609"
       y="299.87622" />
    <rect
       y="299.87622"
       x="655.28497"
       height="25.611025"
       width="25.605782"
       id="rect5969"
       style="fill:#d3d7cf;fill-opacity:1;fill-rule:nonzero;stroke:none" />
    <rect
       style="fill:#d3d7cf;fill-opacity:1;fill-rule:nonzero;stroke:none"
       id="rect5971"
       width="25.605782"
       height="25.611025"
       x="686.32391"
       y="299.87622" />
    <rect
       y="299.87622"
       x="806.34094"
       height="25.611025"
       width="25.605782"
       id="rect5973"
       style="fill:#d3d7cf;fill-opacity:1;fill-rule:nonzero;stroke:none" />
    <rect
       style="fill:#d3d7cf;fill-opacity:1;fill-rule:nonzero;stroke:none"
       id="rect5975"
       width="25.605782"
       height="25.611025"
       x="837.37982"
       y="299.87622" />
    <rect
       y="299.87622"
       x="868.4187"
       height="25.611025"
       width="25.605782"
       id="rect5977"
       style="fill:#d3d7cf;fill-opacity:1;fill-rule:nonzero;stroke:none" />
    <rect
       y="299.87622"
       x="446.28979"
       height="25.611025"
       width="25.605782"
       id="rect5979"
       style="fill:#d3d7cf;fill-opacity:1;fill-rule:nonzero;stroke:none" />
    <rect
       style="fill:#d3d7cf;fill-opacity:1;fill-rule:nonzero;stroke:none"
       id="rect5981"
       width="25.605782"
       height="25.611025"
       x="477.32867"
       y="299.87622" />
    <rect
       y="299.87622"
       x="508.36755"
       height="25.611025"
       width="25.605782"
       id="rect5983"
       style="fill:#d3d7cf;fill-opacity:1;fill-rule:nonzero;stroke:none" />
    <g
       id="g3680"
       transform="translate(-36.167491,109.87168)">
      <rect
         style="fill:#eeeeec;fill-opacity:1;fill-rule:nonzero;stroke:#1c4e63;stroke-width:3.99999976"
         id="rect3666"
         width="207.63618"
         height="74.556671"
         x="198.92488"
         y="-66.045204" />
      <text
         transform="scale(0.99989761,1.0001024)"
         xml:space="preserve"
         style="font-size:30.58895874px;font-style:normal;font-weight:normal;fill:#2e3436;fill-opacity:1;stroke:none;font-family:Bitstream Vera Sans"
         x="237.46225"
         y="-19.084558"
         id="text3672"><tspan
           sodipodi:role="line"
           id="tspan3674"
           x="237.46225"
           y="-19.084558"
           style="fill:#2e3436;fill-opacity:1">home.ini</tspan></text>
    </g>
    <g
       id="g3685"
       transform="translate(366.71367,110.58596)">
      <rect
         y="-66.045204"
         x="198.92488"
         height="74.556671"
         width="207.63618"
         id="rect3687"
         style="fill:#eeeeec;fill-opacity:1;fill-rule:nonzero;stroke:#1c4e63;stroke-width:3.99999976" />
      <text
         id="text3689"
         y="-19.084558"
         x="227.46126"
         style="font-size:30.58895874px;font-style:normal;font-weight:normal;fill:#2e3436;fill-opacity:1;stroke:none;font-family:Bitstream Vera Sans"
         xml:space="preserve"
         transform="scale(0.99989761,1.0001024)"><tspan
           style="fill:#2e3436;fill-opacity:1"
           y="-19.084558"
           x="227.46126"
           id="tspan3691"
           sodipodi:role="line">project.ini</tspan></text>
    </g>
    <path
       sodipodi:nodetypes="cc"
       style="fill:none;stroke:#000000;stroke-width:4;stroke-linecap:butt;stroke-linejoin:miter;stroke-miterlimit:4;stroke-opacity:1;stroke-dasharray:none;marker-end:url(#Arrow2Mend)"
       d="M 489.3261,197.06771 655.43821,127.64198"
       id="path3713" />
    <path
       id="path5397"
       d="m 669.3261,197.06771 -1.03074,-67.99716"
       style="fill:none;stroke:#000000;stroke-width:4;stroke-linecap:butt;stroke-linejoin:miter;stroke-miterlimit:4;stroke-opacity:1;stroke-dasharray:none;marker-end:url(#Arrow2Mend)"
       sodipodi:nodetypes="cc" />
    <path
       sodipodi:nodetypes="cc"
       style="fill:none;stroke:#000000;stroke-width:4;stroke-linecap:butt;stroke-linejoin:miter;stroke-miterlimit:4;stroke-opacity:1;stroke-dasharray:none;marker-end:url(#Arrow2Mend)"
       d="M 849.3261,197.06771 682.58107,127.64198"
       id="path5399" />
    <path
       id="path5401"
       d="M 370.75467,82.781996 554.00964,81.927695"
       style="fill:none;stroke:#000000;stroke-width:4;stroke-linecap:butt;stroke-linejoin:miter;stroke-miterlimit:4;stroke-opacity:1;stroke-dasharray:none;marker-end:url(#Arrow2Mend)"
       sodipodi:nodetypes="cc" />
    <path
       id="path5403"
       d="m 257.3261,197.06771 -1.03075,-59.0791"
       style="fill:none;stroke:#000000;stroke-width:4;stroke-linecap:butt;stroke-linejoin:miter;stroke-miterlimit:4;stroke-opacity:1;stroke-dasharray:none;marker-end:url(#marker3020)"
       sodipodi:nodetypes="cc" />
    <g
       transform="matrix(0,-1.0346298,1.0348417,0,3.4842617,38.63398)"
       id="g5405">
      <rect
         y="595.04993"
         x="7.1650391"
         height="24.748737"
         width="24.748737"
         id="rect5407"
         style="fill:#888a85;fill-opacity:1;fill-rule:nonzero;stroke:none" />
      <rect
         y="595.04993"
         x="37.165039"
         height="24.748737"
         width="24.748737"
         id="rect5409"
         style="fill:#888a85;fill-opacity:1;fill-rule:nonzero;stroke:none" />
      <rect
         style="fill:#d3d7cf;fill-opacity:1;fill-rule:nonzero;stroke:none"
         id="rect5411"
         width="24.748737"
         height="24.748737"
         x="6.9507537"
         y="625.04993" />
      <rect
         y="625.04993"
         x="36.950756"
         height="24.748737"
         width="24.748737"
         id="rect5413"
         style="fill:#d3d7cf;fill-opacity:1;fill-rule:nonzero;stroke:none" />
      <rect
         y="655.04993"
         x="6.9507537"
         height="24.748737"
         width="24.748737"
         id="rect5415"
         style="fill:#d3d7cf;fill-opacity:1;fill-rule:nonzero;stroke:none" />
      <rect
         style="fill:#d3d7cf;fill-opacity:1;fill-rule:nonzero;stroke:none"
         id="rect5417"
         width="24.748737"
         height="24.748737"
         x="36.950756"
         y="655.04993" />
    </g>
    <rect
       y="219.26672"
       x="-26.935104"
       height="25.611025"
       width="25.605782"
       id="rect5421"
       style="opacity:0.23200001;fill:#888a85;fill-opacity:1;fill-rule:nonzero;stroke:none"
       transform="matrix(0,-1,1,0,0,0)" />
    <rect
       style="opacity:0.23200001;fill:#d3d7cf;fill-opacity:1;fill-rule:nonzero;stroke:none"
       id="rect5425"
       width="25.605782"
       height="25.611025"
       x="-27.156811"
       y="250.31198"
       transform="matrix(0,-1,1,0,0,0)" />
    <rect
       y="281.35724"
       x="-27.156811"
       height="25.611025"
       width="25.605782"
       id="rect5429"
       style="opacity:0.23200001;fill:#d3d7cf;fill-opacity:1;fill-rule:nonzero;stroke:none"
       transform="matrix(0,-1,1,0,0,0)" />
    <rect
       transform="matrix(0,-1,1,0,0,0)"
       style="fill:#888a85;fill-opacity:1;fill-rule:nonzero;stroke:none"
       id="rect5439"
       width="25.605782"
       height="25.611025"
       x="5.0648956"
       y="219.26672" />
    <rect
       transform="matrix(0,-1,1,0,0,0)"
       y="250.31198"
       x="4.8431892"
       height="25.611025"
       width="25.605782"
       id="rect5441"
       style="fill:#d3d7cf;fill-opacity:1;fill-rule:nonzero;stroke:none" />
    <rect
       transform="matrix(0,-1,1,0,0,0)"
       style="fill:#d3d7cf;fill-opacity:1;fill-rule:nonzero;stroke:none"
       id="rect5443"
       width="25.605782"
       height="25.611025"
       x="4.8431892"
       y="281.35724" />
  </g>
</svg>
